<svg width="290" height="48" viewBox="0 0 290 48" fill="none" xmlns="http://www.w3.org/2000/svg">
<path d="M28.2916 11.25L30.7021 4.761C30.7876 4.53 30.7546 4.2735 30.6136 4.071C30.4756 3.87 30.2461 3.75 30.0001 3.75H18.0001C17.7541 3.75 17.5246 3.87 17.3851 4.071C17.2441 4.2735 17.2126 4.53 17.2966 4.761L19.7086 11.25H28.2916Z" fill="#9B6B43"/>
<path d="M15.798 4.0005C15.657 3.8415 15.453 3.75 15.2385 3.75H8.23205C7.87955 3.75 7.57355 3.9975 7.49855 4.3425C6.76955 7.752 6.57305 11.2815 6.91505 14.832C6.94205 15.093 7.10105 15.321 7.33655 15.435L12.0075 17.6835L8.32655 19.4535C8.00255 19.6095 7.83605 19.9725 7.92605 20.3205C9.32105 25.635 11.9535 30.5805 15.7485 35.0175L23.43 43.9875C23.5725 44.154 23.7795 44.25 24 44.25C24.2205 44.25 24.4275 44.154 24.57 43.9875L32.2515 35.0175C36.0465 30.5805 38.679 25.635 40.074 20.3205C40.1655 19.974 39.9975 19.6095 39.6735 19.4535L35.9925 17.6835L40.6635 15.435C40.899 15.321 41.0595 15.0915 41.085 14.832C41.427 11.3295 41.2305 7.8 40.5015 4.344C40.431 3.999 40.125 3.75 39.771 3.75H32.7645C32.55 3.75 32.346 3.8415 32.2035 4.002C32.061 4.1625 31.9935 4.3755 32.0205 4.5885C32.919 12.1785 32.154 19.9335 29.862 27.3225L28.062 12.7515H19.938L18.1395 27.3045C15.8565 19.92 15.096 12.18 15.984 4.5885C16.0095 4.3755 15.942 4.161 15.798 4.0005Z" fill="#9B6B43"/>
<path d="M65.517 15.0455H70.0682L74.875 26.7727H75.0795L79.8864 15.0455H84.4375V32.5H80.858V21.1392H80.7131L76.196 32.4148H73.7585L69.2415 21.0966H69.0966V32.5H65.517V15.0455ZM93.3757 32.7557C92.0291 32.7557 90.87 32.483 89.8984 31.9375C88.9325 31.3864 88.1882 30.608 87.6655 29.6023C87.1428 28.5909 86.8814 27.3949 86.8814 26.0142C86.8814 24.6676 87.1428 23.4858 87.6655 22.4688C88.1882 21.4517 88.924 20.6591 89.8729 20.0909C90.8274 19.5227 91.9467 19.2386 93.2308 19.2386C94.0945 19.2386 94.8984 19.3778 95.6428 19.6562C96.3928 19.929 97.0462 20.3409 97.603 20.892C98.1655 21.4432 98.603 22.1364 98.9155 22.9716C99.228 23.8011 99.3842 24.7727 99.3842 25.8864V26.8835H88.3303V24.6335H95.9666C95.9666 24.1108 95.853 23.6477 95.6257 23.2443C95.3984 22.8409 95.0831 22.5256 94.6797 22.2983C94.282 22.0653 93.8189 21.9489 93.2905 21.9489C92.7393 21.9489 92.2507 22.0767 91.8246 22.3324C91.4041 22.5824 91.0746 22.9205 90.8359 23.3466C90.5973 23.767 90.4751 24.2358 90.4695 24.7528V26.892C90.4695 27.5398 90.5888 28.0994 90.8274 28.571C91.0717 29.0426 91.4155 29.4062 91.8587 29.6619C92.3018 29.9176 92.8274 30.0455 93.4354 30.0455C93.8388 30.0455 94.2081 29.9886 94.5433 29.875C94.8786 29.7614 95.1655 29.5909 95.4041 29.3636C95.6428 29.1364 95.8246 28.858 95.9496 28.5284L99.3075 28.75C99.1371 29.5568 98.7876 30.2614 98.2592 30.8636C97.7365 31.4602 97.0604 31.9261 96.2308 32.2614C95.407 32.5909 94.4553 32.7557 93.3757 32.7557ZM105.384 24.9318V32.5H101.754V19.4091H105.214V21.7188H105.367C105.657 20.9574 106.143 20.3551 106.825 19.9119C107.506 19.4631 108.333 19.2386 109.305 19.2386C110.214 19.2386 111.006 19.4375 111.683 19.8352C112.359 20.233 112.884 20.8011 113.259 21.5398C113.634 22.2727 113.822 23.1477 113.822 24.1648V32.5H110.191V24.8125C110.197 24.0114 109.992 23.3864 109.577 22.9375C109.163 22.483 108.592 22.2557 107.864 22.2557C107.376 22.2557 106.944 22.3608 106.569 22.571C106.2 22.7812 105.91 23.0881 105.7 23.4915C105.495 23.8892 105.39 24.3693 105.384 24.9318ZM127.575 23.142L124.251 23.3466C124.195 23.0625 124.072 22.8068 123.885 22.5795C123.697 22.3466 123.45 22.1619 123.143 22.0256C122.842 21.8835 122.482 21.8125 122.061 21.8125C121.499 21.8125 121.024 21.9318 120.638 22.1705C120.251 22.4034 120.058 22.7159 120.058 23.108C120.058 23.4205 120.183 23.6847 120.433 23.9006C120.683 24.1165 121.112 24.2898 121.72 24.4205L124.089 24.8977C125.362 25.1591 126.311 25.5795 126.936 26.1591C127.561 26.7386 127.874 27.5 127.874 28.4432C127.874 29.3011 127.621 30.054 127.115 30.7017C126.615 31.3494 125.928 31.8551 125.053 32.2188C124.183 32.5767 123.18 32.7557 122.044 32.7557C120.311 32.7557 118.93 32.3949 117.902 31.6733C116.879 30.946 116.28 29.9574 116.104 28.7074L119.675 28.5199C119.783 29.0483 120.044 29.4517 120.459 29.7301C120.874 30.0028 121.405 30.1392 122.053 30.1392C122.689 30.1392 123.2 30.017 123.587 29.7727C123.979 29.5227 124.178 29.2017 124.183 28.8097C124.178 28.4801 124.038 28.2102 123.766 28C123.493 27.7841 123.072 27.6193 122.504 27.5057L120.237 27.054C118.959 26.7983 118.007 26.3551 117.382 25.7244C116.763 25.0937 116.453 24.2898 116.453 23.3125C116.453 22.4716 116.68 21.7472 117.135 21.1392C117.595 20.5312 118.24 20.0625 119.07 19.733C119.905 19.4034 120.882 19.2386 122.001 19.2386C123.655 19.2386 124.956 19.5881 125.905 20.2869C126.859 20.9858 127.416 21.9375 127.575 23.142ZM132.742 32.5L129.18 19.4091H132.853L134.881 28.2045H135.001L137.114 19.4091H140.719L142.867 28.1534H142.978L144.972 19.4091H148.637L145.083 32.5H141.239L138.989 24.267H138.827L136.577 32.5H132.742ZM156.212 32.7557C154.865 32.7557 153.706 32.483 152.734 31.9375C151.768 31.3864 151.024 30.608 150.501 29.6023C149.979 28.5909 149.717 27.3949 149.717 26.0142C149.717 24.6676 149.979 23.4858 150.501 22.4688C151.024 21.4517 151.76 20.6591 152.709 20.0909C153.663 19.5227 154.783 19.2386 156.067 19.2386C156.93 19.2386 157.734 19.3778 158.479 19.6562C159.229 19.929 159.882 20.3409 160.439 20.892C161.001 21.4432 161.439 22.1364 161.751 22.9716C162.064 23.8011 162.22 24.7727 162.22 25.8864V26.8835H151.166V24.6335H158.803C158.803 24.1108 158.689 23.6477 158.462 23.2443C158.234 22.8409 157.919 22.5256 157.516 22.2983C157.118 22.0653 156.655 21.9489 156.126 21.9489C155.575 21.9489 155.087 22.0767 154.661 22.3324C154.24 22.5824 153.911 22.9205 153.672 23.3466C153.433 23.767 153.311 24.2358 153.305 24.7528V26.892C153.305 27.5398 153.425 28.0994 153.663 28.571C153.908 29.0426 154.251 29.4062 154.695 29.6619C155.138 29.9176 155.663 30.0455 156.271 30.0455C156.675 30.0455 157.044 29.9886 157.379 29.875C157.714 29.7614 158.001 29.5909 158.24 29.3636C158.479 29.1364 158.661 28.858 158.786 28.5284L162.143 28.75C161.973 29.5568 161.624 30.2614 161.095 30.8636C160.572 31.4602 159.896 31.9261 159.067 32.2614C158.243 32.5909 157.291 32.7557 156.212 32.7557ZM168.322 32.7472C167.487 32.7472 166.743 32.6023 166.089 32.3125C165.436 32.017 164.919 31.5824 164.538 31.0085C164.163 30.429 163.976 29.7074 163.976 28.8438C163.976 28.1165 164.109 27.5057 164.376 27.0114C164.643 26.517 165.007 26.1193 165.467 25.8182C165.928 25.517 166.45 25.2898 167.036 25.1364C167.626 24.983 168.246 24.875 168.893 24.8125C169.655 24.733 170.268 24.6591 170.734 24.5909C171.2 24.517 171.538 24.4091 171.749 24.267C171.959 24.125 172.064 23.9148 172.064 23.6364V23.5852C172.064 23.0455 171.893 22.6278 171.553 22.3324C171.217 22.0369 170.74 21.8892 170.121 21.8892C169.467 21.8892 168.947 22.0341 168.561 22.3239C168.175 22.608 167.919 22.9659 167.794 23.3977L164.436 23.125C164.607 22.3295 164.942 21.642 165.442 21.0625C165.942 20.4773 166.587 20.0284 167.376 19.7159C168.172 19.3977 169.092 19.2386 170.138 19.2386C170.865 19.2386 171.561 19.3239 172.226 19.4943C172.896 19.6648 173.49 19.929 174.007 20.2869C174.53 20.6449 174.942 21.1051 175.243 21.6676C175.544 22.2244 175.695 22.892 175.695 23.6705V32.5H172.251V30.6847H172.149C171.939 31.0938 171.658 31.4545 171.305 31.767C170.953 32.0739 170.53 32.3153 170.036 32.4915C169.541 32.6619 168.97 32.7472 168.322 32.7472ZM169.362 30.2415C169.896 30.2415 170.368 30.1364 170.777 29.9261C171.186 29.7102 171.507 29.4205 171.74 29.0568C171.973 28.6932 172.089 28.2812 172.089 27.821V26.4318C171.976 26.5057 171.82 26.5739 171.621 26.6364C171.428 26.6932 171.209 26.7472 170.964 26.7983C170.72 26.8437 170.476 26.8864 170.232 26.9261C169.987 26.9602 169.766 26.9915 169.567 27.0199C169.141 27.0824 168.768 27.1818 168.45 27.3182C168.132 27.4545 167.885 27.6392 167.709 27.8722C167.533 28.0994 167.445 28.3835 167.445 28.7244C167.445 29.2188 167.624 29.5966 167.982 29.858C168.345 30.1136 168.805 30.2415 169.362 30.2415ZM178.511 32.5V19.4091H182.031V21.6932H182.168C182.406 20.8807 182.807 20.267 183.369 19.8523C183.932 19.4318 184.58 19.2216 185.312 19.2216C185.494 19.2216 185.69 19.233 185.901 19.2557C186.111 19.2784 186.295 19.3097 186.455 19.3494V22.571C186.284 22.5199 186.048 22.4744 185.747 22.4347C185.446 22.3949 185.17 22.375 184.92 22.375C184.386 22.375 183.909 22.4915 183.489 22.7244C183.074 22.9517 182.744 23.2699 182.5 23.679C182.261 24.0881 182.142 24.5597 182.142 25.0938V32.5H178.511ZM193.955 32.5V15.0455H205.511V18.0881H197.645V22.2472H204.744V25.2898H197.645V32.5H193.955ZM212.879 32.7557C211.555 32.7557 210.411 32.4744 209.445 31.9119C208.484 31.3437 207.743 30.554 207.22 29.5426C206.697 28.5256 206.436 27.3466 206.436 26.0057C206.436 24.6534 206.697 23.4716 207.22 22.4602C207.743 21.4432 208.484 20.6534 209.445 20.0909C210.411 19.5227 211.555 19.2386 212.879 19.2386C214.203 19.2386 215.345 19.5227 216.305 20.0909C217.271 20.6534 218.016 21.4432 218.538 22.4602C219.061 23.4716 219.322 24.6534 219.322 26.0057C219.322 27.3466 219.061 28.5256 218.538 29.5426C218.016 30.554 217.271 31.3437 216.305 31.9119C215.345 32.4744 214.203 32.7557 212.879 32.7557ZM212.896 29.9432C213.499 29.9432 214.001 29.7727 214.405 29.4318C214.808 29.0852 215.112 28.6136 215.317 28.017C215.527 27.4205 215.632 26.7415 215.632 25.9801C215.632 25.2188 215.527 24.5398 215.317 23.9432C215.112 23.3466 214.808 22.875 214.405 22.5284C214.001 22.1818 213.499 22.0085 212.896 22.0085C212.288 22.0085 211.777 22.1818 211.362 22.5284C210.953 22.875 210.643 23.3466 210.433 23.9432C210.229 24.5398 210.126 25.2188 210.126 25.9801C210.126 26.7415 210.229 27.4205 210.433 28.017C210.643 28.6136 210.953 29.0852 211.362 29.4318C211.777 29.7727 212.288 29.9432 212.896 29.9432ZM221.683 32.5V19.4091H225.203V21.6932H225.339C225.578 20.8807 225.979 20.267 226.541 19.8523C227.104 19.4318 227.751 19.2216 228.484 19.2216C228.666 19.2216 228.862 19.233 229.072 19.2557C229.283 19.2784 229.467 19.3097 229.626 19.3494V22.571C229.456 22.5199 229.22 22.4744 228.919 22.4347C228.618 22.3949 228.342 22.375 228.092 22.375C227.558 22.375 227.081 22.4915 226.661 22.7244C226.246 22.9517 225.916 23.2699 225.672 23.679C225.433 24.0881 225.314 24.5597 225.314 25.0938V32.5H221.683ZM237.126 32.5V15.0455H244.013C245.331 15.0455 246.456 15.2812 247.388 15.7528C248.325 16.2187 249.038 16.8807 249.527 17.7386C250.021 18.5909 250.268 19.5937 250.268 20.7472C250.268 21.9062 250.018 22.9034 249.518 23.7386C249.018 24.5682 248.294 25.2045 247.345 25.6477C246.402 26.0909 245.26 26.3125 243.919 26.3125H239.308V23.3466H243.322C244.027 23.3466 244.612 23.25 245.078 23.0568C245.544 22.8636 245.891 22.5739 246.118 22.1875C246.351 21.8011 246.467 21.321 246.467 20.7472C246.467 20.1676 246.351 19.679 246.118 19.2812C245.891 18.8835 245.541 18.5824 245.07 18.3778C244.604 18.1676 244.016 18.0625 243.305 18.0625H240.817V32.5H237.126ZM246.553 24.5568L250.891 32.5H246.817L242.572 24.5568H246.553ZM258.563 32.7557C257.217 32.7557 256.058 32.483 255.086 31.9375C254.12 31.3864 253.376 30.608 252.853 29.6023C252.33 28.5909 252.069 27.3949 252.069 26.0142C252.069 24.6676 252.33 23.4858 252.853 22.4688C253.376 21.4517 254.112 20.6591 255.06 20.0909C256.015 19.5227 257.134 19.2386 258.418 19.2386C259.282 19.2386 260.086 19.3778 260.83 19.6562C261.58 19.929 262.234 20.3409 262.79 20.892C263.353 21.4432 263.79 22.1364 264.103 22.9716C264.415 23.8011 264.572 24.7727 264.572 25.8864V26.8835H253.518V24.6335H261.154C261.154 24.1108 261.04 23.6477 260.813 23.2443C260.586 22.8409 260.271 22.5256 259.867 22.2983C259.469 22.0653 259.006 21.9489 258.478 21.9489C257.927 21.9489 257.438 22.0767 257.012 22.3324C256.592 22.5824 256.262 22.9205 256.023 23.3466C255.785 23.767 255.663 24.2358 255.657 24.7528V26.892C255.657 27.5398 255.776 28.0994 256.015 28.571C256.259 29.0426 256.603 29.4062 257.046 29.6619C257.489 29.9176 258.015 30.0455 258.623 30.0455C259.026 30.0455 259.396 29.9886 259.731 29.875C260.066 29.7614 260.353 29.5909 260.592 29.3636C260.83 29.1364 261.012 28.858 261.137 28.5284L264.495 28.75C264.325 29.5568 263.975 30.2614 263.447 30.8636C262.924 31.4602 262.248 31.9261 261.418 32.2614C260.594 32.5909 259.643 32.7557 258.563 32.7557ZM270.572 24.9318V32.5H266.941V19.4091H270.401V21.7188H270.555C270.844 20.9574 271.33 20.3551 272.012 19.9119C272.694 19.4631 273.521 19.2386 274.492 19.2386C275.401 19.2386 276.194 19.4375 276.87 19.8352C277.546 20.233 278.072 20.8011 278.447 21.5398C278.822 22.2727 279.009 23.1477 279.009 24.1648V32.5H275.379V24.8125C275.384 24.0114 275.18 23.3864 274.765 22.9375C274.35 22.483 273.779 22.2557 273.052 22.2557C272.563 22.2557 272.131 22.3608 271.756 22.571C271.387 22.7812 271.097 23.0881 270.887 23.4915C270.683 23.8892 270.577 24.3693 270.572 24.9318ZM288.834 19.4091V22.1364H280.95V19.4091H288.834ZM282.74 16.2727H286.371V28.4773C286.371 28.8125 286.422 29.0739 286.524 29.2614C286.626 29.4432 286.768 29.571 286.95 29.6449C287.138 29.7187 287.354 29.7557 287.598 29.7557C287.768 29.7557 287.939 29.7415 288.109 29.7131C288.28 29.679 288.411 29.6534 288.501 29.6364L289.072 32.3381C288.891 32.3949 288.635 32.4602 288.305 32.5341C287.976 32.6136 287.575 32.6619 287.104 32.679C286.229 32.7131 285.462 32.5966 284.803 32.3295C284.149 32.0625 283.641 31.6477 283.277 31.0852C282.913 30.5227 282.734 29.8125 282.74 28.9545V16.2727Z" fill="#9B6B43"/>
</svg>
