<svg width="347" height="48" viewBox="0 0 347 48" fill="none" xmlns="http://www.w3.org/2000/svg">
<path d="M28.2916 11.25L30.7021 4.761C30.7876 4.53 30.7546 4.2735 30.6136 4.071C30.4756 3.87 30.2461 3.75 30.0001 3.75H18.0001C17.7541 3.75 17.5246 3.87 17.3851 4.071C17.2441 4.2735 17.2126 4.53 17.2966 4.761L19.7086 11.25H28.2916Z" fill="#9B6B43"/>
<path d="M15.798 4.0005C15.657 3.8415 15.453 3.75 15.2385 3.75H8.23205C7.87955 3.75 7.57355 3.9975 7.49855 4.3425C6.76955 7.752 6.57305 11.2815 6.91505 14.832C6.94205 15.093 7.10105 15.321 7.33655 15.435L12.0075 17.6835L8.32655 19.4535C8.00255 19.6095 7.83605 19.9725 7.92605 20.3205C9.32105 25.635 11.9535 30.5805 15.7485 35.0175L23.43 43.9875C23.5725 44.154 23.7795 44.25 24 44.25C24.2205 44.25 24.4275 44.154 24.57 43.9875L32.2515 35.0175C36.0465 30.5805 38.679 25.635 40.074 20.3205C40.1655 19.974 39.9975 19.6095 39.6735 19.4535L35.9925 17.6835L40.6635 15.435C40.899 15.321 41.0595 15.0915 41.085 14.832C41.427 11.3295 41.2305 7.8 40.5015 4.344C40.431 3.999 40.125 3.75 39.771 3.75H32.7645C32.55 3.75 32.346 3.8415 32.2035 4.002C32.061 4.1625 31.9935 4.3755 32.0205 4.5885C32.919 12.1785 32.154 19.9335 29.862 27.3225L28.062 12.7515H19.938L18.1395 27.3045C15.8565 19.92 15.096 12.18 15.984 4.5885C16.0095 4.3755 15.942 4.161 15.798 4.0005Z" fill="#9B6B43"/>
<path d="M65.8963 13.1818H71.5852L77.5938 27.8409H77.8494L83.858 13.1818H89.5469V35H85.0724V20.799H84.8913L79.245 34.8935H76.1982L70.5518 20.7457H70.3707V35H65.8963V13.1818ZM100.72 35.3196C99.0364 35.3196 97.5875 34.9787 96.373 34.2969C95.1657 33.608 94.2353 32.6349 93.5819 31.3778C92.9284 30.1136 92.6017 28.6186 92.6017 26.8928C92.6017 25.2095 92.9284 23.7322 93.5819 22.4609C94.2353 21.1896 95.155 20.1989 96.3411 19.4886C97.5343 18.7784 98.9334 18.4233 100.539 18.4233C101.618 18.4233 102.623 18.5973 103.553 18.9453C104.491 19.2862 105.308 19.8011 106.004 20.4901C106.707 21.179 107.254 22.0455 107.644 23.0895C108.035 24.1264 108.23 25.3409 108.23 26.733V27.9794H94.4128V25.1669H103.958C103.958 24.5135 103.816 23.9347 103.532 23.4304C103.248 22.9261 102.854 22.532 102.35 22.2479C101.852 21.9567 101.274 21.8111 100.613 21.8111C99.9242 21.8111 99.3134 21.9709 98.7807 22.2905C98.2551 22.603 97.8432 23.0256 97.5449 23.5582C97.2466 24.0838 97.0939 24.6697 97.0868 25.3161V27.9901C97.0868 28.7997 97.236 29.4993 97.5343 30.0888C97.8397 30.6783 98.2694 31.1328 98.8233 31.4524C99.3773 31.772 100.034 31.9318 100.794 31.9318C101.298 31.9318 101.76 31.8608 102.179 31.7188C102.598 31.5767 102.957 31.3636 103.255 31.0795C103.553 30.7955 103.781 30.4474 103.937 30.0355L108.134 30.3125C107.921 31.321 107.485 32.2017 106.824 32.9545C106.171 33.7003 105.325 34.2827 104.289 34.7017C103.259 35.1136 102.069 35.3196 100.72 35.3196ZM115.73 25.5398V35H111.192V18.6364H115.517V21.5234H115.709C116.071 20.5717 116.678 19.8189 117.531 19.2649C118.383 18.7038 119.416 18.4233 120.631 18.4233C121.767 18.4233 122.758 18.6719 123.603 19.169C124.448 19.6662 125.105 20.3764 125.574 21.2997C126.043 22.2159 126.277 23.3097 126.277 24.581V35H121.739V25.3906C121.746 24.3892 121.49 23.608 120.972 23.0469C120.453 22.4787 119.74 22.1946 118.83 22.1946C118.22 22.1946 117.68 22.326 117.211 22.5888C116.749 22.8516 116.387 23.2351 116.124 23.7393C115.869 24.2365 115.737 24.8366 115.73 25.5398ZM143.469 23.3026L139.314 23.5582C139.243 23.2031 139.091 22.8835 138.856 22.5994C138.622 22.3082 138.313 22.0774 137.929 21.907C137.553 21.7294 137.102 21.6406 136.576 21.6406C135.873 21.6406 135.28 21.7898 134.797 22.0881C134.314 22.3793 134.073 22.7699 134.073 23.2599C134.073 23.6506 134.229 23.9808 134.542 24.2507C134.854 24.5206 135.39 24.7372 136.15 24.9006L139.112 25.4972C140.703 25.8239 141.889 26.3494 142.67 27.0739C143.451 27.7983 143.842 28.75 143.842 29.929C143.842 31.0014 143.526 31.9425 142.894 32.7521C142.269 33.5618 141.409 34.1939 140.316 34.6484C139.229 35.0959 137.975 35.3196 136.555 35.3196C134.389 35.3196 132.663 34.8686 131.377 33.9666C130.099 33.0575 129.35 31.8217 129.13 30.2592L133.593 30.0249C133.728 30.6854 134.055 31.1896 134.574 31.5376C135.092 31.8786 135.756 32.049 136.566 32.049C137.361 32.049 138 31.8963 138.483 31.5909C138.973 31.2784 139.222 30.8771 139.229 30.3871C139.222 29.9751 139.048 29.6378 138.707 29.375C138.366 29.1051 137.841 28.8991 137.13 28.7571L134.297 28.1925C132.699 27.8729 131.509 27.3189 130.728 26.5305C129.953 25.7422 129.566 24.7372 129.566 23.5156C129.566 22.4645 129.85 21.5589 130.419 20.799C130.994 20.0391 131.8 19.4531 132.837 19.0412C133.881 18.6293 135.103 18.4233 136.502 18.4233C138.569 18.4233 140.195 18.8601 141.381 19.7337C142.574 20.6072 143.27 21.7969 143.469 23.3026ZM149.928 35L145.475 18.6364H150.066L152.602 29.6307H152.751L155.393 18.6364H159.899L162.584 29.5668H162.722L165.215 18.6364H169.796L165.354 35H160.549L157.737 24.7088H157.534L154.722 35H149.928ZM179.265 35.3196C177.581 35.3196 176.132 34.9787 174.918 34.2969C173.711 33.608 172.78 32.6349 172.127 31.3778C171.473 30.1136 171.147 28.6186 171.147 26.8928C171.147 25.2095 171.473 23.7322 172.127 22.4609C172.78 21.1896 173.7 20.1989 174.886 19.4886C176.079 18.7784 177.478 18.4233 179.083 18.4233C180.163 18.4233 181.168 18.5973 182.098 18.9453C183.036 19.2862 183.853 19.8011 184.549 20.4901C185.252 21.179 185.799 22.0455 186.189 23.0895C186.58 24.1264 186.775 25.3409 186.775 26.733V27.9794H172.958V25.1669H182.503C182.503 24.5135 182.361 23.9347 182.077 23.4304C181.793 22.9261 181.399 22.532 180.895 22.2479C180.397 21.9567 179.819 21.8111 179.158 21.8111C178.469 21.8111 177.858 21.9709 177.326 22.2905C176.8 22.603 176.388 23.0256 176.09 23.5582C175.792 24.0838 175.639 24.6697 175.632 25.3161V27.9901C175.632 28.7997 175.781 29.4993 176.079 30.0888C176.385 30.6783 176.814 31.1328 177.368 31.4524C177.922 31.772 178.579 31.9318 179.339 31.9318C179.843 31.9318 180.305 31.8608 180.724 31.7188C181.143 31.5767 181.502 31.3636 181.8 31.0795C182.098 30.7955 182.326 30.4474 182.482 30.0355L186.679 30.3125C186.466 31.321 186.029 32.2017 185.369 32.9545C184.716 33.7003 183.87 34.2827 182.833 34.7017C181.804 35.1136 180.614 35.3196 179.265 35.3196ZM194.403 35.3089C193.359 35.3089 192.429 35.1278 191.612 34.7656C190.795 34.3963 190.149 33.853 189.673 33.1357C189.204 32.4112 188.97 31.5092 188.97 30.4297C188.97 29.5206 189.137 28.7571 189.471 28.1392C189.804 27.5213 190.259 27.0241 190.834 26.6477C191.409 26.2713 192.063 25.9872 192.794 25.7955C193.533 25.6037 194.307 25.4688 195.117 25.3906C196.069 25.2912 196.836 25.1989 197.418 25.1136C198 25.0213 198.423 24.8864 198.686 24.7088C198.949 24.5312 199.08 24.2685 199.08 23.9205V23.8565C199.08 23.1818 198.867 22.6598 198.441 22.2905C198.022 21.9212 197.425 21.7365 196.651 21.7365C195.834 21.7365 195.184 21.9176 194.701 22.2798C194.218 22.6349 193.899 23.0824 193.743 23.6222L189.545 23.2812C189.758 22.2869 190.177 21.4276 190.802 20.7031C191.427 19.9716 192.233 19.4105 193.221 19.0199C194.215 18.6222 195.365 18.4233 196.672 18.4233C197.581 18.4233 198.451 18.5298 199.282 18.7429C200.12 18.956 200.863 19.2862 201.509 19.7337C202.162 20.1811 202.677 20.7564 203.054 21.4595C203.43 22.1555 203.618 22.9901 203.618 23.9631V35H199.314V32.7308H199.186C198.924 33.2422 198.572 33.6932 198.132 34.0838C197.691 34.4673 197.162 34.7692 196.544 34.9893C195.926 35.2024 195.213 35.3089 194.403 35.3089ZM195.703 32.1768C196.37 32.1768 196.96 32.0455 197.471 31.7827C197.983 31.5128 198.384 31.1506 198.675 30.696C198.966 30.2415 199.112 29.7266 199.112 29.1513V27.4148C198.97 27.5071 198.775 27.5923 198.526 27.6705C198.284 27.7415 198.011 27.8089 197.706 27.8729C197.4 27.9297 197.095 27.983 196.789 28.0327C196.484 28.0753 196.207 28.1143 195.958 28.1499C195.426 28.228 194.961 28.3523 194.563 28.5227C194.165 28.6932 193.856 28.924 193.636 29.2152C193.416 29.4993 193.306 29.8544 193.306 30.2805C193.306 30.8984 193.529 31.3707 193.977 31.6974C194.431 32.017 195.007 32.1768 195.703 32.1768ZM207.139 35V18.6364H211.539V21.4915H211.71C212.008 20.4759 212.509 19.7088 213.212 19.1903C213.915 18.6648 214.724 18.402 215.641 18.402C215.868 18.402 216.113 18.4162 216.376 18.4446C216.638 18.473 216.869 18.5121 217.068 18.5618V22.5888C216.855 22.5249 216.56 22.468 216.184 22.4183C215.808 22.3686 215.463 22.3438 215.151 22.3438C214.483 22.3438 213.886 22.4893 213.361 22.7805C212.842 23.0646 212.43 23.4624 212.125 23.9737C211.827 24.4851 211.678 25.0746 211.678 25.7422V35H207.139ZM226.443 35V13.1818H240.889V16.9851H231.056V22.1839H239.93V25.9872H231.056V35H226.443ZM250.099 35.3196C248.444 35.3196 247.013 34.968 245.806 34.2649C244.605 33.5547 243.679 32.5675 243.025 31.3033C242.372 30.032 242.045 28.5582 242.045 26.8821C242.045 25.1918 242.372 23.7145 243.025 22.4503C243.679 21.179 244.605 20.1918 245.806 19.4886C247.013 18.7784 248.444 18.4233 250.099 18.4233C251.754 18.4233 253.181 18.7784 254.382 19.4886C255.589 20.1918 256.52 21.179 257.173 22.4503C257.826 23.7145 258.153 25.1918 258.153 26.8821C258.153 28.5582 257.826 30.032 257.173 31.3033C256.52 32.5675 255.589 33.5547 254.382 34.2649C253.181 34.968 251.754 35.3196 250.099 35.3196ZM250.12 31.804C250.873 31.804 251.502 31.5909 252.006 31.1648C252.51 30.7315 252.89 30.142 253.146 29.3963C253.409 28.6506 253.54 27.8018 253.54 26.8501C253.54 25.8984 253.409 25.0497 253.146 24.304C252.89 23.5582 252.51 22.9687 252.006 22.5355C251.502 22.1023 250.873 21.8857 250.12 21.8857C249.36 21.8857 248.721 22.1023 248.203 22.5355C247.691 22.9687 247.304 23.5582 247.042 24.304C246.786 25.0497 246.658 25.8984 246.658 26.8501C246.658 27.8018 246.786 28.6506 247.042 29.3963C247.304 30.142 247.691 30.7315 248.203 31.1648C248.721 31.5909 249.36 31.804 250.12 31.804ZM261.104 35V18.6364H265.504V21.4915H265.674C265.973 20.4759 266.473 19.7088 267.176 19.1903C267.88 18.6648 268.689 18.402 269.605 18.402C269.833 18.402 270.078 18.4162 270.341 18.4446C270.603 18.473 270.834 18.5121 271.033 18.5618V22.5888C270.82 22.5249 270.525 22.468 270.149 22.4183C269.772 22.3686 269.428 22.3438 269.115 22.3438C268.448 22.3438 267.851 22.4893 267.326 22.7805C266.807 23.0646 266.395 23.4624 266.09 23.9737C265.792 24.4851 265.642 25.0746 265.642 25.7422V35H261.104ZM280.408 35V13.1818H289.016C290.664 13.1818 292.07 13.4766 293.235 14.0661C294.407 14.6484 295.298 15.4759 295.909 16.5483C296.527 17.6136 296.836 18.8672 296.836 20.3089C296.836 21.7578 296.523 23.0043 295.898 24.0483C295.273 25.0852 294.368 25.8807 293.181 26.4347C292.002 26.9886 290.575 27.2656 288.899 27.2656H283.135V23.5582H288.153C289.034 23.5582 289.765 23.4375 290.348 23.196C290.93 22.9545 291.363 22.5923 291.647 22.1094C291.939 21.6264 292.084 21.0263 292.084 20.3089C292.084 19.5845 291.939 18.9737 291.647 18.4766C291.363 17.9794 290.926 17.603 290.337 17.3473C289.755 17.0845 289.02 16.9531 288.132 16.9531H285.021V35H280.408ZM292.191 25.071L297.613 35H292.521L287.216 25.071H292.191ZM307.204 35.3196C305.521 35.3196 304.072 34.9787 302.857 34.2969C301.65 33.608 300.72 32.6349 300.066 31.3778C299.413 30.1136 299.086 28.6186 299.086 26.8928C299.086 25.2095 299.413 23.7322 300.066 22.4609C300.72 21.1896 301.639 20.1989 302.825 19.4886C304.019 18.7784 305.418 18.4233 307.023 18.4233C308.102 18.4233 309.107 18.5973 310.038 18.9453C310.975 19.2862 311.792 19.8011 312.488 20.4901C313.191 21.179 313.738 22.0455 314.129 23.0895C314.519 24.1264 314.715 25.3409 314.715 26.733V27.9794H300.897V25.1669H310.443C310.443 24.5135 310.301 23.9347 310.017 23.4304C309.732 22.9261 309.338 22.532 308.834 22.2479C308.337 21.9567 307.758 21.8111 307.097 21.8111C306.409 21.8111 305.798 21.9709 305.265 22.2905C304.74 22.603 304.328 23.0256 304.029 23.5582C303.731 24.0838 303.578 24.6697 303.571 25.3161V27.9901C303.571 28.7997 303.72 29.4993 304.019 30.0888C304.324 30.6783 304.754 31.1328 305.308 31.4524C305.862 31.772 306.519 31.9318 307.279 31.9318C307.783 31.9318 308.244 31.8608 308.664 31.7188C309.083 31.5767 309.441 31.3636 309.74 31.0795C310.038 30.7955 310.265 30.4474 310.421 30.0355L314.619 30.3125C314.406 31.321 313.969 32.2017 313.308 32.9545C312.655 33.7003 311.81 34.2827 310.773 34.7017C309.743 35.1136 308.553 35.3196 307.204 35.3196ZM322.215 25.5398V35H317.676V18.6364H322.002V21.5234H322.193C322.556 20.5717 323.163 19.8189 324.015 19.2649C324.867 18.7038 325.901 18.4233 327.115 18.4233C328.252 18.4233 329.242 18.6719 330.088 19.169C330.933 19.6662 331.59 20.3764 332.058 21.2997C332.527 22.2159 332.762 23.3097 332.762 24.581V35H328.223V25.3906C328.23 24.3892 327.975 23.608 327.456 23.0469C326.938 22.4787 326.224 22.1946 325.315 22.1946C324.704 22.1946 324.164 22.326 323.695 22.5888C323.234 22.8516 322.872 23.2351 322.609 23.7393C322.353 24.2365 322.222 24.8366 322.215 25.5398ZM345.042 18.6364V22.0455H335.188V18.6364H345.042ZM337.425 14.7159H341.963V29.9716C341.963 30.3906 342.027 30.7173 342.155 30.9517C342.283 31.179 342.461 31.3388 342.688 31.4311C342.922 31.5234 343.192 31.5696 343.498 31.5696C343.711 31.5696 343.924 31.5518 344.137 31.5163C344.35 31.4737 344.513 31.4418 344.627 31.4205L345.341 34.7976C345.113 34.8686 344.794 34.9503 344.382 35.0426C343.97 35.142 343.469 35.2024 342.88 35.2237C341.786 35.2663 340.827 35.1207 340.003 34.7869C339.186 34.4531 338.551 33.9347 338.096 33.2315C337.642 32.5284 337.418 31.6406 337.425 30.5682V14.7159Z" fill="#9B6B43"/>
</svg>
